<svg xmlns="http://www.w3.org/2000/svg" width="153.708" height="51.38" viewBox="0 0 153.708 51.38"><defs><style>.a{fill:#a6a6a6;}.b{fill:#fff;}</style></defs><g transform="translate(0 0)"><path class="a" d="M141.467,0H12.247c-.471,0-.936,0-1.406,0-.393,0-.783.01-1.18.016A16.974,16.974,0,0,0,7.087.246a8.561,8.561,0,0,0-2.442.805A8.269,8.269,0,0,0,2.566,2.565,8.039,8.039,0,0,0,1.052,4.648a8.479,8.479,0,0,0-.8,2.445,16.689,16.689,0,0,0-.23,2.572c-.012.394-.013.789-.019,1.183v29.69c.006.4.008.785.019,1.184a16.689,16.689,0,0,0,.23,2.571,8.462,8.462,0,0,0,.8,2.446,7.974,7.974,0,0,0,1.513,2.074,8.06,8.06,0,0,0,2.079,1.514,8.607,8.607,0,0,0,2.442.81,17.282,17.282,0,0,0,2.574.227c.4.009.787.014,1.18.014.47,0,.935,0,1.406,0h129.22c.462,0,.931,0,1.392,0,.391,0,.793-.005,1.184-.014a17.057,17.057,0,0,0,2.569-.227,8.74,8.74,0,0,0,2.451-.81,8.064,8.064,0,0,0,2.077-1.514,8.214,8.214,0,0,0,1.518-2.074,8.483,8.483,0,0,0,.8-2.446,17.35,17.35,0,0,0,.238-2.571c.005-.4.005-.785.005-1.184.01-.467.01-.931.01-1.4V12.249c0-.47,0-.937-.01-1.4,0-.394,0-.789-.005-1.183a17.349,17.349,0,0,0-.238-2.572,8.5,8.5,0,0,0-.8-2.445,8.306,8.306,0,0,0-3.6-3.6,8.693,8.693,0,0,0-2.451-.805,16.755,16.755,0,0,0-2.569-.227C143.652.012,143.251,0,142.86,0c-.462,0-.931,0-1.392,0Z" transform="translate(0 0)"/><path d="M10.6,50.007c-.391,0-.773,0-1.162-.014a16.3,16.3,0,0,1-2.4-.209,7.558,7.558,0,0,1-2.128-.7,6.944,6.944,0,0,1-1.794-1.306A6.834,6.834,0,0,1,1.8,45.98a7.35,7.35,0,0,1-.7-2.129,15.945,15.945,0,0,1-.214-2.408C.884,41.172.873,40.27.873,40.27V10.6S.884,9.71.892,9.449a15.89,15.89,0,0,1,.213-2.4,7.393,7.393,0,0,1,.7-2.135,6.9,6.9,0,0,1,1.3-1.8A7.149,7.149,0,0,1,4.908,1.8a7.48,7.48,0,0,1,2.124-.7A16.167,16.167,0,0,1,9.441.891L10.6.875H142.605l1.173.016a15.908,15.908,0,0,1,2.387.209,7.628,7.628,0,0,1,2.146.7,7.185,7.185,0,0,1,3.1,3.108A7.4,7.4,0,0,1,152.1,7.03a16.7,16.7,0,0,1,.223,2.424c0,.364,0,.755,0,1.143.01.482.01.94.01,1.4V38.883c0,.467,0,.922-.01,1.381,0,.418,0,.8-.005,1.194a16.354,16.354,0,0,1-.22,2.381,7.372,7.372,0,0,1-.694,2.145,7.04,7.04,0,0,1-1.3,1.78,6.953,6.953,0,0,1-1.8,1.313,7.529,7.529,0,0,1-2.143.706,16.111,16.111,0,0,1-2.4.21c-.376.009-.77.014-1.153.014l-1.392,0Z" transform="translate(0.248 0.249)"/><g transform="translate(12.808 11.201)"><path class="b" d="M28.979,22.1a6.357,6.357,0,0,1,3.027-5.333A6.507,6.507,0,0,0,26.879,14c-2.157-.226-4.248,1.291-5.347,1.291-1.12,0-2.813-1.268-4.635-1.231a6.827,6.827,0,0,0-5.745,3.5c-2.484,4.3-.631,10.622,1.748,14.1,1.191,1.7,2.582,3.6,4.4,3.537,1.782-.074,2.447-1.136,4.6-1.136,2.131,0,2.755,1.136,4.613,1.093,1.912-.031,3.116-1.71,4.265-3.428a14.081,14.081,0,0,0,1.95-3.972A6.142,6.142,0,0,1,28.979,22.1Z" transform="translate(-9.972 -7.226)"/><path class="b" d="M22.961,13.2A6.259,6.259,0,0,0,24.392,8.72a6.368,6.368,0,0,0-4.12,2.132A5.955,5.955,0,0,0,18.8,15.17,5.265,5.265,0,0,0,22.961,13.2Z" transform="translate(-7.463 -8.72)"/><g transform="translate(31.413 11.754)"><path class="b" d="M44.543,29.718h-6.08L37,34.029H34.427l5.759-15.951h2.676l5.759,15.951H46Zm-5.45-1.989h4.819l-2.376-7h-.066Z" transform="translate(-34.427 -17.812)"/><path class="b" d="M57.586,27.285c0,3.614-1.934,5.936-4.853,5.936a3.943,3.943,0,0,1-3.659-2.035h-.055v5.76H46.631V21.47h2.311V23.4h.044a4.125,4.125,0,0,1,3.7-2.056C55.64,21.348,57.586,23.681,57.586,27.285Zm-2.454,0c0-2.354-1.217-3.9-3.073-3.9-1.824,0-3.051,1.581-3.051,3.9,0,2.343,1.227,3.912,3.051,3.912C53.916,31.2,55.132,29.661,55.132,27.285Z" transform="translate(-30.955 -16.882)"/><path class="b" d="M67.551,27.285c0,3.614-1.934,5.936-4.853,5.936a3.943,3.943,0,0,1-3.659-2.035h-.055v5.76H56.6V21.47h2.311V23.4h.044a4.125,4.125,0,0,1,3.7-2.056C65.605,21.348,67.551,23.681,67.551,27.285Zm-2.454,0c0-2.354-1.217-3.9-3.073-3.9-1.824,0-3.051,1.581-3.051,3.9,0,2.343,1.227,3.912,3.051,3.912,1.857,0,3.073-1.537,3.073-3.912Z" transform="translate(-28.12 -16.882)"/><path class="b" d="M72.252,29.644c.177,1.582,1.714,2.62,3.813,2.62,2.012,0,3.46-1.039,3.46-2.465,0-1.238-.873-1.979-2.94-2.487l-2.067-.5c-2.929-.707-4.289-2.077-4.289-4.3,0-2.752,2.4-4.642,5.8-4.642,3.371,0,5.681,1.89,5.759,4.642h-2.41c-.144-1.592-1.46-2.553-3.383-2.553s-3.239.972-3.239,2.387c0,1.128.84,1.791,2.9,2.3l1.757.432c3.273.774,4.632,2.089,4.632,4.422,0,2.984-2.377,4.853-6.158,4.853-3.537,0-5.926-1.825-6.08-4.71Z" transform="translate(-24.362 -17.871)"/><path class="b" d="M84.252,19.3v2.752h2.211v1.89H84.252v6.411c0,1,.443,1.46,1.415,1.46a7.459,7.459,0,0,0,.785-.055v1.879a6.556,6.556,0,0,1-1.326.11c-2.354,0-3.273-.884-3.273-3.14V23.942H80.163v-1.89h1.691V19.3Z" transform="translate(-21.416 -17.465)"/><path class="b" d="M86.065,27.289c0-3.659,2.155-5.958,5.516-5.958s5.517,2.3,5.517,5.958-2.134,5.958-5.517,5.958S86.065,30.958,86.065,27.289Zm8.6,0c0-2.51-1.15-3.991-3.085-3.991S88.5,24.791,88.5,27.289c0,2.52,1.149,3.99,3.083,3.99s3.084-1.47,3.084-3.99Z" transform="translate(-19.737 -16.887)"/><path class="b" d="M96.186,21.47h2.277v1.979h.055a2.774,2.774,0,0,1,2.8-2.1,3.682,3.682,0,0,1,.818.089V23.67a3.337,3.337,0,0,0-1.073-.144A2.405,2.405,0,0,0,98.573,26.2v6.9H96.186Z" transform="translate(-16.857 -16.882)"/><path class="b" d="M111.708,29.688c-.321,2.111-2.377,3.56-5.008,3.56-3.383,0-5.483-2.267-5.483-5.9s2.111-6.014,5.383-6.014c3.217,0,5.241,2.21,5.241,5.736v.818h-8.214v.144a3.029,3.029,0,0,0,3.128,3.294,2.631,2.631,0,0,0,2.686-1.636Zm-8.069-3.471h5.814a2.8,2.8,0,0,0-2.852-2.952,2.944,2.944,0,0,0-2.962,2.952Z" transform="translate(-15.426 -16.887)"/></g></g></g><g transform="translate(45.819 10.837)"><path class="b" d="M38.439,8.733a3.391,3.391,0,0,1,3.606,3.808c0,2.449-1.323,3.856-3.606,3.856H35.671V8.733Zm-1.578,6.58h1.445a2.41,2.41,0,0,0,2.528-2.757,2.416,2.416,0,0,0-2.528-2.741H36.861Z" transform="translate(-35.671 -8.355)"/><path class="b" d="M41.684,13.109a2.74,2.74,0,1,1,5.455,0,2.741,2.741,0,1,1-5.455,0Zm4.281,0c0-1.254-.563-1.987-1.552-1.987s-1.55.733-1.55,1.987.558,1.991,1.55,1.991,1.552-.733,1.552-1.991Z" transform="translate(-33.964 -7.962)"/><path class="b" d="M53,15.979H51.813l-1.2-4.26h-.09l-1.19,4.26H48.164l-1.594-5.784h1.158l1.036,4.414h.085l1.189-4.414h1.1l1.189,4.414h.09l1.031-4.414h1.141Z" transform="translate(-32.57 -7.937)"/><path class="b" d="M53.854,10.221h1.1v.919h.085a1.731,1.731,0,0,1,1.726-1.03,1.881,1.881,0,0,1,2,2.151V16H57.624V12.547c0-.929-.4-1.392-1.248-1.392A1.327,1.327,0,0,0,55,12.621V16H53.854Z" transform="translate(-30.498 -7.963)"/><path class="b" d="M59.094,8.437h1.141v8.042H59.094Z" transform="translate(-29.007 -8.437)"/><path class="b" d="M61.221,13.109a2.74,2.74,0,1,1,5.456,0,2.741,2.741,0,1,1-5.456,0Zm4.281,0c0-1.254-.563-1.987-1.552-1.987s-1.55.733-1.55,1.987.558,1.991,1.55,1.991,1.552-.733,1.552-1.991Z" transform="translate(-28.406 -7.962)"/><path class="b" d="M66.4,14.368c0-1.041.775-1.641,2.151-1.727l1.567-.09v-.5c0-.611-.4-.956-1.184-.956-.637,0-1.079.234-1.205.643H66.624c.117-.993,1.051-1.631,2.363-1.631,1.45,0,2.268.722,2.268,1.944V16h-1.1v-.813h-.09a1.946,1.946,0,0,1-1.737.908A1.747,1.747,0,0,1,66.4,14.368Zm3.718-.494V13.39l-1.412.09c-.8.053-1.158.324-1.158.834s.452.824,1.073.824a1.363,1.363,0,0,0,1.5-1.264Z" transform="translate(-26.928 -7.962)"/><path class="b" d="M71.348,13.584c0-1.828.94-2.985,2.4-2.985a1.906,1.906,0,0,1,1.774,1.015h.085V8.437H76.75v8.042H75.656v-.914h-.09a2.007,2.007,0,0,1-1.816,1.009C72.278,16.574,71.348,15.416,71.348,13.584Zm1.179,0c0,1.227.578,1.965,1.545,1.965s1.557-.749,1.557-1.96-.6-1.965-1.557-1.965-1.545.743-1.545,1.96Z" transform="translate(-25.521 -8.437)"/><path class="b" d="M79.233,13.109a2.74,2.74,0,1,1,5.455,0,2.741,2.741,0,1,1-5.455,0Zm4.281,0c0-1.254-.563-1.987-1.552-1.987s-1.55.733-1.55,1.987.558,1.991,1.55,1.991S83.514,14.368,83.514,13.109Z" transform="translate(-23.282 -7.962)"/><path class="b" d="M84.669,10.221h1.1v.919h.085a1.731,1.731,0,0,1,1.726-1.03,1.881,1.881,0,0,1,2,2.151V16H88.44V12.547c0-.929-.4-1.392-1.248-1.392a1.327,1.327,0,0,0-1.381,1.466V16H84.669Z" transform="translate(-21.731 -7.963)"/><path class="b" d="M93.972,9.074V10.54h1.253V11.5H93.972v2.974c0,.606.25.871.818.871a3.81,3.81,0,0,0,.435-.026v.951a3.745,3.745,0,0,1-.621.058c-1.269,0-1.775-.447-1.775-1.562V11.5h-.918V10.54h.918V9.074Z" transform="translate(-19.671 -8.256)"/><path class="b" d="M95.7,8.437h1.131v3.187h.09a1.78,1.78,0,0,1,1.764-1.036,1.905,1.905,0,0,1,1.992,2.156v3.734H99.539V13.026c0-.924-.43-1.392-1.237-1.392A1.351,1.351,0,0,0,96.846,13.1v3.378H95.7Z" transform="translate(-18.592 -8.437)"/><path class="b" d="M105.914,14.442a2.348,2.348,0,0,1-2.506,1.673,2.627,2.627,0,0,1-2.672-2.985,2.668,2.668,0,0,1,2.667-3.022c1.609,0,2.58,1.1,2.58,2.916v.4H101.9v.064a1.529,1.529,0,0,0,1.54,1.657,1.386,1.386,0,0,0,1.376-.7ZM101.9,12.578h2.921a1.4,1.4,0,0,0-1.424-1.5,1.479,1.479,0,0,0-1.5,1.5Z" transform="translate(-17.168 -7.962)"/></g></svg>