<svg width="134" height="40" viewBox="0 0 134 40" fill="none" xmlns="http://www.w3.org/2000/svg">
<path d="M129.037 40H4.96296C2.1837 40 0 37.8 0 35V5C0 2.2 2.1837 0 4.96296 0H129.037C131.816 0 134 2.2 134 5V35C134 37.8 131.816 40 129.037 40Z" fill="black"/>
<path d="M129.037 0.8C131.32 0.8 133.206 2.7 133.206 5V35C133.206 37.3 131.32 39.2 129.037 39.2H4.96296C2.68 39.2 0.794074 37.3 0.794074 35V5C0.794074 2.7 2.68 0.8 4.96296 0.8H129.037ZM129.037 0H4.96296C2.1837 0 0 2.3 0 5V35C0 37.8 2.1837 40 4.96296 40H129.037C131.816 40 134 37.8 134 35V5C134 2.3 131.816 0 129.037 0Z" fill="white"/>
<path d="M47.0493 10.1984C47.0493 10.9984 46.8508 11.6984 46.3545 12.1984C45.7589 12.7984 45.0641 13.0984 44.1708 13.0984C43.2775 13.0984 42.5826 12.7984 41.9871 12.1984C41.3915 11.5984 41.0938 10.8984 41.0938 9.99844C41.0938 9.09844 41.3915 8.39844 41.9871 7.79844C42.5826 7.19844 43.2775 6.89844 44.1708 6.89844C44.5678 6.89844 44.9649 6.99844 45.3619 7.19844C45.7589 7.39844 46.0567 7.59844 46.2552 7.89844L45.7589 8.39844C45.3619 7.89844 44.8656 7.69844 44.1708 7.69844C43.5752 7.69844 42.9797 7.89844 42.5826 8.39844C42.0863 8.79844 41.8878 9.39844 41.8878 10.0984C41.8878 10.7984 42.0863 11.3984 42.5826 11.7984C43.0789 12.1984 43.5752 12.4984 44.1708 12.4984C44.8656 12.4984 45.3619 12.2984 45.8582 11.7984C46.156 11.4984 46.3545 11.0984 46.3545 10.5984H44.1708V9.79844H47.0493V10.1984ZM51.6152 7.69844H48.9352V9.59844H51.4167V10.2984H48.9352V12.1984H51.6152V12.9984H48.1412V6.99844H51.6152V7.69844ZM54.8908 12.9984H54.0967V7.69844H52.4093V6.99844H56.5782V7.69844H54.8908V12.9984ZM59.4567 12.9984V6.99844H60.2508V12.9984H59.4567ZM63.6256 12.9984H62.8315V7.69844H61.1441V6.99844H65.2137V7.69844H63.5263V12.9984H63.6256ZM73.0552 12.1984C72.4597 12.7984 71.7649 13.0984 70.8715 13.0984C69.9782 13.0984 69.2834 12.7984 68.6878 12.1984C68.0923 11.5984 67.7945 10.8984 67.7945 9.99844C67.7945 9.09844 68.0923 8.39844 68.6878 7.79844C69.2834 7.19844 69.9782 6.89844 70.8715 6.89844C71.7649 6.89844 72.4597 7.19844 73.0552 7.79844C73.6508 8.39844 73.9486 9.09844 73.9486 9.99844C73.9486 10.8984 73.6508 11.5984 73.0552 12.1984ZM69.2834 11.6984C69.6804 12.0984 70.276 12.3984 70.8715 12.3984C71.4671 12.3984 72.0626 12.1984 72.4597 11.6984C72.8567 11.2984 73.1545 10.6984 73.1545 9.99844C73.1545 9.29844 72.956 8.69844 72.4597 8.29844C72.0626 7.89844 71.4671 7.59844 70.8715 7.59844C70.276 7.59844 69.6804 7.79844 69.2834 8.29844C68.8863 8.69844 68.5886 9.29844 68.5886 9.99844C68.5886 10.6984 68.7871 11.2984 69.2834 11.6984ZM75.0404 12.9984V6.99844H75.9337L78.8123 11.6984V6.99844H79.6063V12.9984H78.8123L75.7352 8.09844V12.9984H75.0404Z" fill="white" stroke="white" stroke-width="0.205926" stroke-miterlimit="10"/>
<path d="M67.5969 21.7937C65.2147 21.7937 63.3287 23.5938 63.3287 26.0938C63.3287 28.4938 65.2147 30.3937 67.5969 30.3937C69.9791 30.3937 71.865 28.5938 71.865 26.0938C71.865 23.4938 69.9791 21.7937 67.5969 21.7937ZM67.5969 28.5938C66.3065 28.5938 65.2147 27.4937 65.2147 25.9937C65.2147 24.4937 66.3065 23.3937 67.5969 23.3937C68.8872 23.3937 69.9791 24.3937 69.9791 25.9937C69.9791 27.4937 68.8872 28.5938 67.5969 28.5938ZM58.3658 21.7937C55.9835 21.7937 54.0976 23.5938 54.0976 26.0938C54.0976 28.4938 55.9835 30.3937 58.3658 30.3937C60.748 30.3937 62.6339 28.5938 62.6339 26.0938C62.6339 23.4938 60.748 21.7937 58.3658 21.7937ZM58.3658 28.5938C57.0754 28.5938 55.9835 27.4937 55.9835 25.9937C55.9835 24.4937 57.0754 23.3937 58.3658 23.3937C59.6561 23.3937 60.748 24.3937 60.748 25.9937C60.748 27.4937 59.6561 28.5938 58.3658 28.5938ZM47.348 23.0938V24.8937H51.6161C51.5169 25.8937 51.1198 26.6938 50.6235 27.1938C50.028 27.7938 49.0354 28.4937 47.348 28.4937C44.668 28.4937 42.6828 26.3938 42.6828 23.6938C42.6828 20.9938 44.7672 18.8937 47.348 18.8937C48.7376 18.8937 49.8295 19.4938 50.6235 20.1938L51.9139 18.8937C50.8221 17.8937 49.4324 17.0938 47.4472 17.0938C43.8739 17.0938 40.7969 20.0938 40.7969 23.6938C40.7969 27.2938 43.8739 30.2937 47.4472 30.2937C49.4324 30.2937 50.8221 29.6937 52.0132 28.3937C53.2043 27.1937 53.6013 25.4938 53.6013 24.1938C53.6013 23.7938 53.6013 23.3938 53.5021 23.0938H47.348ZM92.4117 24.4937C92.0147 23.4937 91.0221 21.7937 88.8384 21.7937C86.6547 21.7937 84.868 23.4938 84.868 26.0938C84.868 28.4938 86.6547 30.3937 89.0369 30.3937C90.9228 30.3937 92.1139 29.1937 92.5109 28.4937L91.1213 27.4937C90.625 28.1937 90.0295 28.6938 89.0369 28.6938C88.0443 28.6938 87.4487 28.2937 86.9524 27.3937L92.6102 24.9937L92.4117 24.4937ZM86.6547 25.8937C86.6547 24.2937 87.945 23.3937 88.8384 23.3937C89.5332 23.3937 90.228 23.7937 90.4265 24.2937L86.6547 25.8937ZM81.9895 29.9937H83.8754V17.4937H81.9895V29.9937ZM79.0117 22.6938C78.5154 22.1938 77.7213 21.6938 76.7287 21.6938C74.6443 21.6938 72.6591 23.5937 72.6591 25.9937C72.6591 28.3937 74.545 30.1938 76.7287 30.1938C77.7213 30.1938 78.5154 29.6938 78.9124 29.1938H79.0117V29.7937C79.0117 31.3937 78.1184 32.2937 76.7287 32.2937C75.6369 32.2937 74.8428 31.4937 74.6443 30.7937L73.0561 31.4937C73.5524 32.5937 74.7435 33.9937 76.828 33.9937C79.0117 33.9937 80.7984 32.6937 80.7984 29.5938V21.9937H79.0117V22.6938ZM76.828 28.5938C75.5376 28.5938 74.4458 27.4937 74.4458 25.9937C74.4458 24.4937 75.5376 23.3937 76.828 23.3937C78.1184 23.3937 79.1109 24.4937 79.1109 25.9937C79.1109 27.4937 78.1184 28.5938 76.828 28.5938ZM101.047 17.4937H96.5806V29.9937H98.4665V25.2937H101.047C103.132 25.2937 105.117 23.7937 105.117 21.3937C105.117 18.9937 103.132 17.4937 101.047 17.4937ZM101.147 23.4937H98.4665V19.1938H101.147C102.536 19.1938 103.33 20.3937 103.33 21.2937C103.231 22.3937 102.437 23.4937 101.147 23.4937ZM112.561 21.6938C111.172 21.6938 109.782 22.2938 109.286 23.5938L110.973 24.2937C111.37 23.5937 111.966 23.3937 112.661 23.3937C113.653 23.3937 114.547 23.9937 114.646 24.9937V25.0938C114.348 24.8937 113.554 24.5938 112.76 24.5938C110.973 24.5938 109.187 25.5937 109.187 27.3937C109.187 29.0937 110.675 30.1938 112.264 30.1938C113.554 30.1938 114.149 29.5937 114.646 28.9937H114.745V29.9937H116.532V25.1938C116.333 22.9938 114.646 21.6938 112.561 21.6938ZM112.363 28.5938C111.767 28.5938 110.874 28.2937 110.874 27.4937C110.874 26.4937 111.966 26.1938 112.859 26.1938C113.653 26.1938 114.05 26.3937 114.547 26.5938C114.348 27.7938 113.355 28.5938 112.363 28.5938ZM122.785 21.9937L120.701 27.3937H120.601L118.418 21.9937H116.432L119.708 29.5938L117.822 33.7937H119.708L124.77 21.9937H122.785ZM106.109 29.9937H107.995V17.4937H106.109V29.9937Z" fill="white"/>
<path d="M10.3248 7.49219C10.027 7.79219 9.92773 8.29219 9.92773 8.89219V30.9922C9.92773 31.5922 10.1263 32.0922 10.424 32.3922L10.5233 32.4922L22.8314 20.0922V19.8922L10.3248 7.49219Z" fill="url(#paint0_linear_23132_20972)"/>
<path d="M26.8001 24.2891L22.7305 20.1891V19.8891L26.8001 15.7891L26.8994 15.8891L31.7631 18.6891C33.1527 19.4891 33.1527 20.7891 31.7631 21.5891L26.8001 24.2891Z" fill="url(#paint1_linear_23132_20972)"/>
<path d="M26.9005 24.1922L22.7316 19.9922L10.3242 32.4922C10.8205 32.9922 11.5153 32.9922 12.4087 32.5922L26.9005 24.1922Z" fill="url(#paint2_linear_23132_20972)"/>
<path d="M26.9005 15.7928L12.4087 7.49279C11.5153 6.99279 10.8205 7.09279 10.3242 7.59279L22.7316 19.9928L26.9005 15.7928Z" fill="url(#paint3_linear_23132_20972)"/>
<path opacity="0.2" d="M26.8013 24.0938L12.4087 32.2937C11.6146 32.7937 10.9198 32.6937 10.4235 32.2937L10.3242 32.3938L10.4235 32.4937C10.9198 32.8937 11.6146 32.9937 12.4087 32.4937L26.8013 24.0938Z" fill="black"/>
<path opacity="0.12" d="M10.3248 32.2922C10.027 31.9922 9.92773 31.4922 9.92773 30.8922V30.9922C9.92773 31.5922 10.1263 32.0922 10.424 32.3922V32.2922H10.3248ZM31.7648 21.2922L26.8018 24.0922L26.9011 24.1922L31.7648 21.3922C32.4596 20.9922 32.7574 20.4922 32.7574 19.9922C32.7574 20.4922 32.3603 20.8922 31.7648 21.2922Z" fill="black"/>
<path opacity="0.25" d="M12.4092 7.59343L31.7648 18.6934C32.3603 19.0934 32.7574 19.4934 32.7574 19.9934C32.7574 19.4934 32.4596 18.9934 31.7648 18.5934L12.4092 7.49343C11.0196 6.69343 9.92773 7.29343 9.92773 8.89343V8.99343C9.92773 7.49343 11.0196 6.79343 12.4092 7.59343Z" fill="white"/>
<defs>
<linearGradient id="paint0_linear_23132_20972" x1="21.6403" y1="8.70219" x2="4.8578" y2="25.3594" gradientUnits="userSpaceOnUse">
<stop stop-color="#00A0FF"/>
<stop offset="0.007" stop-color="#00A1FF"/>
<stop offset="0.26" stop-color="#00BEFF"/>
<stop offset="0.512" stop-color="#00D2FF"/>
<stop offset="0.76" stop-color="#00DFFF"/>
<stop offset="1" stop-color="#00E3FF"/>
</linearGradient>
<linearGradient id="paint1_linear_23132_20972" x1="33.5835" y1="19.9901" x2="9.56571" y2="19.9901" gradientUnits="userSpaceOnUse">
<stop stop-color="#FFE000"/>
<stop offset="0.409" stop-color="#FFBD00"/>
<stop offset="0.775" stop-color="#FFA500"/>
<stop offset="1" stop-color="#FF9C00"/>
</linearGradient>
<linearGradient id="paint2_linear_23132_20972" x1="24.6444" y1="22.2882" x2="1.88698" y2="44.877" gradientUnits="userSpaceOnUse">
<stop stop-color="#FF3A44"/>
<stop offset="1" stop-color="#C31162"/>
</linearGradient>
<linearGradient id="paint3_linear_23132_20972" x1="7.2442" y1="0.168788" x2="17.4069" y2="10.2562" gradientUnits="userSpaceOnUse">
<stop stop-color="#32A071"/>
<stop offset="0.069" stop-color="#2DA771"/>
<stop offset="0.476" stop-color="#15CF74"/>
<stop offset="0.801" stop-color="#06E775"/>
<stop offset="1" stop-color="#00F076"/>
</linearGradient>
</defs>
</svg>
